<svg xmlns="http://www.w3.org/2000/svg" viewBox="0 0 470 320" width="470" height="320"><defs><filter id="glow" x="-60%" y="-60%" width="220%" height="220%"><feGaussianBlur stdDeviation="2.6" result="b"></feGaussianBlur><feMerge><feMergeNode in="b"></feMergeNode><feMergeNode in="SourceGraphic"></feMergeNode></feMerge></filter><filter id="soft" x="-60%" y="-60%" width="220%" height="220%"><feGaussianBlur stdDeviation="1.2" result="b"></feGaussianBlur><feMerge><feMergeNode in="b"></feMergeNode><feMergeNode in="SourceGraphic"></feMergeNode></feMerge></filter></defs><path d="M 14 24 L 14 14 L 24 14" stroke="#39455f" stroke-width="1" fill="none" opacity="0.7"></path><path d="M 456 24 L 456 14 L 446 14" stroke="#39455f" stroke-width="1" fill="none" opacity="0.7"></path><path d="M 14 296 L 14 306 L 24 306" stroke="#39455f" stroke-width="1" fill="none" opacity="0.7"></path><path d="M 456 296 L 456 306 L 446 306" stroke="#39455f" stroke-width="1" fill="none" opacity="0.7"></path><text x="235" y="24" font-family="&#39;JetBrains Mono&#39;, ui-monospace, monospace" font-size="8.5" fill="#cbd5e8" text-anchor="middle" letter-spacing="0.06em" font-weight="600" style="text-transform:uppercase">Positional Encoding — a sense of order</text><rect x="40" y="70" width="48" height="44" rx="3" fill="rgba(232,71,26,0.06)" stroke="#8294b0" stroke-width="1"></rect><path d="M 44 92 L 44 92.0 L 46 91.0 L 48 90.0 L 50 89.0 L 52 88.0 L 54 87.1 L 56 86.1 L 58 85.2 L 60 84.4 L 62 83.5 L 64 82.8 L 66 82.0 L 68 81.4 L 70 80.7 L 72 80.2 L 74 79.7 L 76 79.2 L 78 78.8 L 80 78.5 L 82 78.3 L 84 78.1" fill="none" stroke="#e8471a" stroke-width="1.2"></path><text x="64" y="128" font-family="&#39;JetBrains Mono&#39;, ui-monospace, monospace" font-size="5.5" fill="#8294b0" text-anchor="middle" letter-spacing="0.1em" font-weight="500" style="text-transform:uppercase">pos 1</text><rect x="40" y="232" width="48" height="30" rx="3" fill="rgba(232,71,26,0.05)" stroke="#8294b0" stroke-width="0.9"></rect><circle cx="64" cy="148" r="6" fill="#0a0e1a" stroke="#e8471a" stroke-width="1.2"></circle><line x1="60.4" y1="148" x2="67.6" y2="148" stroke="#e8471a" stroke-width="1.2"></line><line x1="64" y1="144.4" x2="64" y2="151.6" stroke="#e8471a" stroke-width="1.2"></line><line x1="64" y1="156" x2="64" y2="228" stroke="#8294b0" stroke-width="0.9" stroke-linecap="round"></line><path d="M 64 228 l -2.6 -4.3 M 64 228 l 2.6 -4.3" stroke="#8294b0" stroke-width="0.9" fill="none" stroke-linecap="round"></path><rect x="98" y="70" width="48" height="44" rx="3" fill="rgba(232,71,26,0.06)" stroke="#8294b0" stroke-width="1"></rect><path d="M 102 92 L 102 92.0 L 104 89.8 L 106 87.7 L 108 85.7 L 110 83.8 L 112 82.2 L 114 80.7 L 116 79.6 L 118 78.7 L 120 78.2 L 122 78.0 L 124 78.1 L 126 78.6 L 128 79.4 L 130 80.6 L 132 81.9 L 134 83.6 L 136 85.4 L 138 87.4 L 140 89.5 L 142 91.7" fill="none" stroke="#e8471a" stroke-width="1.2"></path><text x="122" y="128" font-family="&#39;JetBrains Mono&#39;, ui-monospace, monospace" font-size="5.5" fill="#8294b0" text-anchor="middle" letter-spacing="0.1em" font-weight="500" style="text-transform:uppercase">pos 2</text><rect x="98" y="232" width="48" height="30" rx="3" fill="rgba(232,71,26,0.060000000000000005)" stroke="#8294b0" stroke-width="0.9"></rect><circle cx="122" cy="148" r="6" fill="#0a0e1a" stroke="#e8471a" stroke-width="1.2"></circle><line x1="118.4" y1="148" x2="125.6" y2="148" stroke="#e8471a" stroke-width="1.2"></line><line x1="122" y1="144.4" x2="122" y2="151.6" stroke="#e8471a" stroke-width="1.2"></line><line x1="122" y1="156" x2="122" y2="228" stroke="#8294b0" stroke-width="0.9" stroke-linecap="round"></line><path d="M 122 228 l -2.6 -4.3 M 122 228 l 2.6 -4.3" stroke="#8294b0" stroke-width="0.9" fill="none" stroke-linecap="round"></path><rect x="156" y="70" width="48" height="44" rx="3" fill="rgba(232,71,26,0.06)" stroke="#8294b0" stroke-width="1"></rect><path d="M 160 92 L 160 92.0 L 162 88.7 L 164 85.5 L 166 82.8 L 168 80.5 L 170 79.0 L 172 78.1 L 174 78.1 L 176 78.8 L 178 80.4 L 180 82.5 L 182 85.3 L 184 88.4 L 186 91.7 L 188 95.0 L 190 98.2 L 192 101.0 L 194 103.3 L 196 104.9 L 198 105.8 L 200 105.9" fill="none" stroke="#e8471a" stroke-width="1.2"></path><text x="180" y="128" font-family="&#39;JetBrains Mono&#39;, ui-monospace, monospace" font-size="5.5" fill="#8294b0" text-anchor="middle" letter-spacing="0.1em" font-weight="500" style="text-transform:uppercase">pos 3</text><rect x="156" y="232" width="48" height="30" rx="3" fill="rgba(232,71,26,0.07)" stroke="#8294b0" stroke-width="0.9"></rect><circle cx="180" cy="148" r="6" fill="#0a0e1a" stroke="#e8471a" stroke-width="1.2"></circle><line x1="176.4" y1="148" x2="183.6" y2="148" stroke="#e8471a" stroke-width="1.2"></line><line x1="180" y1="144.4" x2="180" y2="151.6" stroke="#e8471a" stroke-width="1.2"></line><line x1="180" y1="156" x2="180" y2="228" stroke="#8294b0" stroke-width="0.9" stroke-linecap="round"></line><path d="M 180 228 l -2.6 -4.3 M 180 228 l 2.6 -4.3" stroke="#8294b0" stroke-width="0.9" fill="none" stroke-linecap="round"></path><rect x="214" y="70" width="48" height="44" rx="3" fill="rgba(232,71,26,0.06)" stroke="#8294b0" stroke-width="1"></rect><path d="M 218 92 L 218 92.0 L 220 87.5 L 222 83.5 L 224 80.4 L 226 78.5 L 228 78.0 L 230 79.0 L 232 81.3 L 234 84.7 L 236 88.9 L 238 93.4 L 240 97.7 L 242 101.5 L 244 104.3 L 246 105.8 L 248 105.8 L 250 104.5 L 252 101.8 L 254 98.1 L 256 93.8 L 258 89.3" fill="none" stroke="#e8471a" stroke-width="1.2"></path><text x="238" y="128" font-family="&#39;JetBrains Mono&#39;, ui-monospace, monospace" font-size="5.5" fill="#8294b0" text-anchor="middle" letter-spacing="0.1em" font-weight="500" style="text-transform:uppercase">pos 4</text><rect x="214" y="232" width="48" height="30" rx="3" fill="rgba(232,71,26,0.08)" stroke="#8294b0" stroke-width="0.9"></rect><circle cx="238" cy="148" r="6" fill="#0a0e1a" stroke="#e8471a" stroke-width="1.2"></circle><line x1="234.4" y1="148" x2="241.6" y2="148" stroke="#e8471a" stroke-width="1.2"></line><line x1="238" y1="144.4" x2="238" y2="151.6" stroke="#e8471a" stroke-width="1.2"></line><line x1="238" y1="156" x2="238" y2="228" stroke="#8294b0" stroke-width="0.9" stroke-linecap="round"></line><path d="M 238 228 l -2.6 -4.3 M 238 228 l 2.6 -4.3" stroke="#8294b0" stroke-width="0.9" fill="none" stroke-linecap="round"></path><rect x="272" y="70" width="48" height="44" rx="3" fill="rgba(232,71,26,0.06)" stroke="#8294b0" stroke-width="1"></rect><path d="M 276 92 L 276 92.0 L 278 86.4 L 280 81.8 L 282 78.8 L 284 78.0 L 286 79.5 L 288 83.0 L 290 88.1 L 292 93.7 L 294 99.1 L 296 103.3 L 298 105.6 L 300 105.8 L 302 103.6 L 304 99.6 L 306 94.3 L 308 88.6 L 310 83.5 L 312 79.8 L 314 78.1 L 316 78.7" fill="none" stroke="#e8471a" stroke-width="1.2"></path><text x="296" y="128" font-family="&#39;JetBrains Mono&#39;, ui-monospace, monospace" font-size="5.5" fill="#8294b0" text-anchor="middle" letter-spacing="0.1em" font-weight="500" style="text-transform:uppercase">pos 5</text><rect x="272" y="232" width="48" height="30" rx="3" fill="rgba(232,71,26,0.09)" stroke="#8294b0" stroke-width="0.9"></rect><circle cx="296" cy="148" r="6" fill="#0a0e1a" stroke="#e8471a" stroke-width="1.2"></circle><line x1="292.4" y1="148" x2="299.6" y2="148" stroke="#e8471a" stroke-width="1.2"></line><line x1="296" y1="144.4" x2="296" y2="151.6" stroke="#e8471a" stroke-width="1.2"></line><line x1="296" y1="156" x2="296" y2="228" stroke="#8294b0" stroke-width="0.9" stroke-linecap="round"></line><path d="M 296 228 l -2.6 -4.3 M 296 228 l 2.6 -4.3" stroke="#8294b0" stroke-width="0.9" fill="none" stroke-linecap="round"></path><rect x="330" y="70" width="48" height="44" rx="3" fill="rgba(232,71,26,0.06)" stroke="#8294b0" stroke-width="1"></rect><path d="M 334 92 L 334 92.0 L 336 85.4 L 338 80.3 L 340 78.1 L 342 79.1 L 344 83.2 L 346 89.4 L 348 96.2 L 350 102.0 L 352 105.4 L 354 105.7 L 356 102.7 L 358 97.2 L 360 90.4 L 362 84.0 L 364 79.5 L 366 78.0 L 368 79.8 L 370 84.5 L 372 90.9 L 374 97.6" fill="none" stroke="#e8471a" stroke-width="1.2"></path><text x="354" y="128" font-family="&#39;JetBrains Mono&#39;, ui-monospace, monospace" font-size="5.5" fill="#8294b0" text-anchor="middle" letter-spacing="0.1em" font-weight="500" style="text-transform:uppercase">pos 6</text><rect x="330" y="232" width="48" height="30" rx="3" fill="rgba(232,71,26,0.1)" stroke="#8294b0" stroke-width="0.9"></rect><circle cx="354" cy="148" r="6" fill="#0a0e1a" stroke="#e8471a" stroke-width="1.2"></circle><line x1="350.4" y1="148" x2="357.6" y2="148" stroke="#e8471a" stroke-width="1.2"></line><line x1="354" y1="144.4" x2="354" y2="151.6" stroke="#e8471a" stroke-width="1.2"></line><line x1="354" y1="156" x2="354" y2="228" stroke="#8294b0" stroke-width="0.9" stroke-linecap="round"></line><path d="M 354 228 l -2.6 -4.3 M 354 228 l 2.6 -4.3" stroke="#8294b0" stroke-width="0.9" fill="none" stroke-linecap="round"></path><rect x="388" y="70" width="48" height="44" rx="3" fill="rgba(232,71,26,0.06)" stroke="#8294b0" stroke-width="1"></rect><path d="M 392 92 L 392 92.0 L 394 84.4 L 396 79.2 L 398 78.2 L 400 81.6 L 402 88.4 L 404 96.3 L 406 102.9 L 408 105.9 L 410 104.5 L 412 99.0 L 414 91.3 L 416 83.8 L 418 78.9 L 420 78.3 L 422 82.1 L 424 89.1 L 426 97.0 L 428 103.3 L 430 106.0 L 432 104.1" fill="none" stroke="#e8471a" stroke-width="1.2"></path><text x="412" y="128" font-family="&#39;JetBrains Mono&#39;, ui-monospace, monospace" font-size="5.5" fill="#8294b0" text-anchor="middle" letter-spacing="0.1em" font-weight="500" style="text-transform:uppercase">pos 7</text><rect x="388" y="232" width="48" height="30" rx="3" fill="rgba(232,71,26,0.11)" stroke="#8294b0" stroke-width="0.9"></rect><circle cx="412" cy="148" r="6" fill="#0a0e1a" stroke="#e8471a" stroke-width="1.2"></circle><line x1="408.4" y1="148" x2="415.6" y2="148" stroke="#e8471a" stroke-width="1.2"></line><line x1="412" y1="144.4" x2="412" y2="151.6" stroke="#e8471a" stroke-width="1.2"></line><line x1="412" y1="156" x2="412" y2="228" stroke="#8294b0" stroke-width="0.9" stroke-linecap="round"></line><path d="M 412 228 l -2.6 -4.3 M 412 228 l 2.6 -4.3" stroke="#8294b0" stroke-width="0.9" fill="none" stroke-linecap="round"></path><text x="40" y="224" font-family="&#39;JetBrains Mono&#39;, ui-monospace, monospace" font-size="6" fill="#cbd5e8" text-anchor="start" letter-spacing="0.1em" font-weight="500" style="text-transform:uppercase">token + PE</text><text x="235" y="224" font-family="&#39;JetBrains Mono&#39;, ui-monospace, monospace" font-size="6" fill="#cbd5e8" text-anchor="middle" letter-spacing="0.1em" font-weight="500" style="text-transform:uppercase">combined embedding</text><text x="420" y="86" font-family="&#39;JetBrains Mono&#39;, ui-monospace, monospace" font-size="6" fill="#e8471a" text-anchor="end" letter-spacing="0.1em" font-weight="500" style="text-transform:uppercase">freq →</text><text x="235" y="300" font-family="&#39;JetBrains Mono&#39;, ui-monospace, monospace" font-size="6" fill="#39455f" text-anchor="middle" letter-spacing="0.05em" font-weight="500" style="text-transform:uppercase">sinusoidal frequencies vary per position · RoPE extends to 128K context</text></svg>