<svg xmlns="http://www.w3.org/2000/svg" viewBox="0 0 100 100" width="100" height="100"><defs><filter id="glow" x="-60%" y="-60%" width="220%" height="220%"><feGaussianBlur stdDeviation="2.2" result="b"></feGaussianBlur><feMerge><feMergeNode in="b"></feMergeNode><feMergeNode in="SourceGraphic"></feMergeNode></feMerge></filter><filter id="soft" x="-60%" y="-60%" width="220%" height="220%"><feGaussianBlur stdDeviation="1.1" result="b"></feGaussianBlur><feMerge><feMergeNode in="b"></feMergeNode><feMergeNode in="SourceGraphic"></feMergeNode></feMerge></filter></defs><rect x="18" y="30" width="42" height="15" rx="3" fill="rgba(167,139,250,0.14)" stroke="#c4b5fd" stroke-width="1.3" filter="url(#soft)"></rect><line x1="23" y1="35" x2="52" y2="35" stroke="#a78bfa" stroke-width="1.3" opacity="0.6"></line><line x1="23" y1="40" x2="45" y2="40" stroke="#a78bfa" stroke-width="1.3" opacity="0.6"></line><rect x="18" y="53" width="42" height="15" rx="3" fill="rgba(130,148,176,0.05)" stroke="#8294b0" stroke-width="1" opacity="0.7"></rect><line x1="23" y1="58" x2="52" y2="58" stroke="#8294b0" stroke-width="1.3" opacity="0.4"></line><line x1="23" y1="63" x2="45" y2="63" stroke="#8294b0" stroke-width="1.3" opacity="0.4"></line><circle cx="70" cy="37.5" r="8" fill="rgba(167,139,250,0.2)" stroke="#c4b5fd" stroke-width="1.3" filter="url(#soft)"></circle><path d="M 66 37.5 l 2.4 2.8 l 4.8 -5.8" fill="none" stroke="#c4b5fd" stroke-width="1.8" stroke-linecap="round" stroke-linejoin="round"></path><path d="M 70 29 C 70 14, 30 14, 22 24 L 22 27" fill="none" stroke="#a78bfa" stroke-width="1.4" stroke-dasharray="3.5 2.5" filter="url(#soft)"></path><path d="M 22 27 l -2.6 -4.5 h5.2 z" fill="#a78bfa"></path></svg>