<svg xmlns="http://www.w3.org/2000/svg" viewBox="0 0 470 360" width="470" height="360"><defs><filter id="glow" x="-60%" y="-60%" width="220%" height="220%"><feGaussianBlur stdDeviation="2.6" result="b"></feGaussianBlur><feMerge><feMergeNode in="b"></feMergeNode><feMergeNode in="SourceGraphic"></feMergeNode></feMerge></filter><filter id="soft" x="-60%" y="-60%" width="220%" height="220%"><feGaussianBlur stdDeviation="1.2" result="b"></feGaussianBlur><feMerge><feMergeNode in="b"></feMergeNode><feMergeNode in="SourceGraphic"></feMergeNode></feMerge></filter></defs><path d="M 14 24 L 14 14 L 24 14" stroke="#39455f" stroke-width="1" fill="none" opacity="0.7"></path><path d="M 456 24 L 456 14 L 446 14" stroke="#39455f" stroke-width="1" fill="none" opacity="0.7"></path><path d="M 14 336 L 14 346 L 24 346" stroke="#39455f" stroke-width="1" fill="none" opacity="0.7"></path><path d="M 456 336 L 456 346 L 446 346" stroke="#39455f" stroke-width="1" fill="none" opacity="0.7"></path><text x="235" y="24" font-family="&#39;JetBrains Mono&#39;, ui-monospace, monospace" font-size="8.5" fill="#cbd5e8" text-anchor="middle" letter-spacing="0.06em" font-weight="600" style="text-transform:uppercase">Data Centres &amp; Cloud Compute — AI at scale</text><line x1="60" y1="70" x2="235" y2="176" stroke="#cbd5e8" stroke-width="1.2"></line><line x1="34" y1="320" x2="235" y2="176" stroke="#cbd5e8" stroke-width="1.2"></line><line x1="410" y1="70" x2="235" y2="176" stroke="#cbd5e8" stroke-width="1.2"></line><line x1="436" y1="320" x2="235" y2="176" stroke="#cbd5e8" stroke-width="1.2"></line><line x1="60" y1="70" x2="410" y2="70" stroke="#cbd5e8" stroke-width="1.2"></line><line x1="34" y1="320" x2="436" y2="320" stroke="#cbd5e8" stroke-width="1.2"></line><line x1="170" y1="80" x2="235" y2="176" stroke="#8294b0" stroke-width="0.8"></line><line x1="300" y1="80" x2="235" y2="176" stroke="#8294b0" stroke-width="0.8"></line><path d="M 44.0 312.8 L 86.3 282.6 L 86.3 149.6 L 44.0 179.9 Z" fill="rgba(52,211,153,0.05)" stroke="#cbd5e8" stroke-width="1.1"></path><line x1="44.0" y1="286.2" x2="86.3" y2="256.0" stroke="#46557140" stroke-width="0.6"></line><line x1="44.0" y1="259.6" x2="86.3" y2="229.4" stroke="#46557140" stroke-width="0.6"></line><line x1="44.0" y1="233.0" x2="86.3" y2="202.8" stroke="#46557140" stroke-width="0.6"></line><line x1="44.0" y1="206.4" x2="86.3" y2="176.2" stroke="#46557140" stroke-width="0.6"></line><circle cx="44.0" cy="272.9" r="1.5" fill="#34d399"></circle><circle cx="44.0" cy="239.7" r="1.5" fill="#34d399"></circle><path d="M 102.3 271.0 L 138.5 245.1 L 138.5 142.4 L 102.3 168.3 Z" fill="rgba(52,211,153,0.05)" stroke="#cbd5e8" stroke-width="1.1"></path><line x1="102.3" y1="250.5" x2="138.5" y2="224.6" stroke="#46557140" stroke-width="0.6"></line><line x1="102.3" y1="230.0" x2="138.5" y2="204.0" stroke="#46557140" stroke-width="0.6"></line><line x1="102.3" y1="209.4" x2="138.5" y2="183.5" stroke="#46557140" stroke-width="0.6"></line><line x1="102.3" y1="188.9" x2="138.5" y2="163.0" stroke="#46557140" stroke-width="0.6"></line><circle cx="102.3" cy="240.2" r="1.5" fill="#34d399"></circle><circle cx="102.3" cy="214.6" r="1.5" fill="#34d399"></circle><path d="M 150.6 236.5 L 178.7 216.3 L 178.7 137.8 L 150.6 158.0 Z" fill="rgba(52,211,153,0.05)" stroke="#cbd5e8" stroke-width="1.1"></path><line x1="150.6" y1="220.8" x2="178.7" y2="200.6" stroke="#46557140" stroke-width="0.6"></line><line x1="150.6" y1="205.1" x2="178.7" y2="184.9" stroke="#46557140" stroke-width="0.6"></line><line x1="150.6" y1="189.4" x2="178.7" y2="169.2" stroke="#46557140" stroke-width="0.6"></line><line x1="150.6" y1="173.7" x2="178.7" y2="153.5" stroke="#46557140" stroke-width="0.6"></line><circle cx="150.6" cy="212.9" r="1.5" fill="#34d399"></circle><circle cx="150.6" cy="193.3" r="1.5" fill="#34d399"></circle><path d="M 425.9 312.8 L 383.7 282.6 L 383.7 149.6 L 425.9 179.9 Z" fill="rgba(52,211,153,0.05)" stroke="#cbd5e8" stroke-width="1.1"></path><line x1="425.9" y1="286.2" x2="383.7" y2="256.0" stroke="#46557140" stroke-width="0.6"></line><line x1="425.9" y1="259.6" x2="383.7" y2="229.4" stroke="#46557140" stroke-width="0.6"></line><line x1="425.9" y1="233.0" x2="383.7" y2="202.8" stroke="#46557140" stroke-width="0.6"></line><line x1="425.9" y1="206.4" x2="383.7" y2="176.2" stroke="#46557140" stroke-width="0.6"></line><circle cx="425.9" cy="272.9" r="1.5" fill="#34d399"></circle><circle cx="425.9" cy="239.7" r="1.5" fill="#34d399"></circle><path d="M 367.7 271.0 L 331.5 245.1 L 331.5 142.4 L 367.7 168.3 Z" fill="rgba(52,211,153,0.05)" stroke="#cbd5e8" stroke-width="1.1"></path><line x1="367.7" y1="250.5" x2="331.5" y2="224.6" stroke="#46557140" stroke-width="0.6"></line><line x1="367.7" y1="230.0" x2="331.5" y2="204.0" stroke="#46557140" stroke-width="0.6"></line><line x1="367.7" y1="209.4" x2="331.5" y2="183.5" stroke="#46557140" stroke-width="0.6"></line><line x1="367.7" y1="188.9" x2="331.5" y2="163.0" stroke="#46557140" stroke-width="0.6"></line><circle cx="367.7" cy="240.2" r="1.5" fill="#34d399"></circle><circle cx="367.7" cy="214.6" r="1.5" fill="#34d399"></circle><path d="M 319.4 236.5 L 291.3 216.3 L 291.3 137.8 L 319.4 158.0 Z" fill="rgba(52,211,153,0.05)" stroke="#cbd5e8" stroke-width="1.1"></path><line x1="319.4" y1="220.8" x2="291.3" y2="200.6" stroke="#46557140" stroke-width="0.6"></line><line x1="319.4" y1="205.1" x2="291.3" y2="184.9" stroke="#46557140" stroke-width="0.6"></line><line x1="319.4" y1="189.4" x2="291.3" y2="169.2" stroke="#46557140" stroke-width="0.6"></line><line x1="319.4" y1="173.7" x2="291.3" y2="153.5" stroke="#46557140" stroke-width="0.6"></line><circle cx="319.4" cy="212.9" r="1.5" fill="#34d399"></circle><circle cx="319.4" cy="193.3" r="1.5" fill="#34d399"></circle><line x1="44" y1="314" x2="235" y2="180" stroke="#34d399" stroke-width="0.9"></line><line x1="426" y1="314" x2="235" y2="180" stroke="#34d399" stroke-width="0.9"></line><g stroke="#8294b0" stroke-width="1" fill="none" stroke-linejoin="round"><circle cx="235" cy="184.7" r="2.6999999999999997"></circle><path d="M 232.12 200 Q 232.12 188.48 233.1568 188.48 L 236.8432 188.48 Q 237.88 188.48 237.88 200 Z"></path></g><line x1="96" y1="110" x2="140" y2="128" stroke="#39455f" stroke-width="0.7"></line><circle cx="140" cy="128" r="1.4" fill="#8294b0"></circle><text x="92" y="108" font-family="&#39;JetBrains Mono&#39;, ui-monospace, monospace" font-size="5.5" fill="#cbd5e8" text-anchor="end" letter-spacing="0.1em" font-weight="500" style="text-transform:uppercase">overhead cable trays</text><line x1="372" y1="300" x2="330" y2="290" stroke="#39455f" stroke-width="0.7"></line><circle cx="330" cy="290" r="1.4" fill="#8294b0"></circle><text x="376" y="298" font-family="&#39;JetBrains Mono&#39;, ui-monospace, monospace" font-size="5.5" fill="#34d399" text-anchor="start" letter-spacing="0.1em" font-weight="500" style="text-transform:uppercase">liquid cooling</text><text x="235" y="344" font-family="&#39;JetBrains Mono&#39;, ui-monospace, monospace" font-size="6" fill="#39455f" text-anchor="middle" letter-spacing="0.04em" font-weight="500" style="text-transform:uppercase">~700 MW per 1,000 H100s · cold/hot aisle containment · PUE-optimised</text></svg>