<svg xmlns="http://www.w3.org/2000/svg" viewBox="0 0 470 350" width="470" height="350"><defs><filter id="glow" x="-60%" y="-60%" width="220%" height="220%"><feGaussianBlur stdDeviation="2.6" result="b"></feGaussianBlur><feMerge><feMergeNode in="b"></feMergeNode><feMergeNode in="SourceGraphic"></feMergeNode></feMerge></filter><filter id="soft" x="-60%" y="-60%" width="220%" height="220%"><feGaussianBlur stdDeviation="1.2" result="b"></feGaussianBlur><feMerge><feMergeNode in="b"></feMergeNode><feMergeNode in="SourceGraphic"></feMergeNode></feMerge></filter></defs><path d="M 14 24 L 14 14 L 24 14" stroke="#39455f" stroke-width="1" fill="none" opacity="0.7"></path><path d="M 456 24 L 456 14 L 446 14" stroke="#39455f" stroke-width="1" fill="none" opacity="0.7"></path><path d="M 14 326 L 14 336 L 24 336" stroke="#39455f" stroke-width="1" fill="none" opacity="0.7"></path><path d="M 456 326 L 456 336 L 446 336" stroke="#39455f" stroke-width="1" fill="none" opacity="0.7"></path><text x="235" y="24" font-family="&#39;JetBrains Mono&#39;, ui-monospace, monospace" font-size="8.5" fill="#cbd5e8" text-anchor="middle" letter-spacing="0.05em" font-weight="600" style="text-transform:uppercase">KV Cache — avoiding redundant computation</text><line x1="235" y1="48" x2="235" y2="300" stroke="#39455f" stroke-width="0.8" stroke-dasharray="4 4"></line><text x="120" y="64" font-family="&#39;JetBrains Mono&#39;, ui-monospace, monospace" font-size="7" fill="#cbd5e8" text-anchor="middle" letter-spacing="0.1em" font-weight="600" style="text-transform:uppercase">Without cache</text><text x="120" y="76" font-family="&#39;JetBrains Mono&#39;, ui-monospace, monospace" font-size="5.5" fill="#8294b0" text-anchor="middle" letter-spacing="0.1em" font-weight="500" style="text-transform:uppercase">recompute every step</text><rect x="40" y="100" width="20" height="16" rx="2" fill="rgba(232,71,26,0.1)" stroke="#8294b0" stroke-width="0.7"></rect><text x="74" y="112" font-family="&#39;JetBrains Mono&#39;, ui-monospace, monospace" font-size="5" fill="#39455f" text-anchor="start" letter-spacing="0.1em" font-weight="500" style="text-transform:uppercase">t1</text><rect x="40" y="144" width="20" height="16" rx="2" fill="rgba(232,71,26,0.1)" stroke="#8294b0" stroke-width="0.7"></rect><line x1="50" y1="144" x2="76" y2="138" stroke="rgba(232,71,26,0.4)" stroke-width="0.5"></line><rect x="66" y="144" width="20" height="16" rx="2" fill="rgba(232,71,26,0.1)" stroke="#8294b0" stroke-width="0.7"></rect><text x="100" y="156" font-family="&#39;JetBrains Mono&#39;, ui-monospace, monospace" font-size="5" fill="#39455f" text-anchor="start" letter-spacing="0.1em" font-weight="500" style="text-transform:uppercase">t2</text><rect x="40" y="188" width="20" height="16" rx="2" fill="rgba(232,71,26,0.1)" stroke="#8294b0" stroke-width="0.7"></rect><line x1="50" y1="188" x2="102" y2="182" stroke="rgba(232,71,26,0.4)" stroke-width="0.5"></line><rect x="66" y="188" width="20" height="16" rx="2" fill="rgba(232,71,26,0.1)" stroke="#8294b0" stroke-width="0.7"></rect><line x1="76" y1="188" x2="102" y2="182" stroke="rgba(232,71,26,0.4)" stroke-width="0.5"></line><rect x="92" y="188" width="20" height="16" rx="2" fill="rgba(232,71,26,0.1)" stroke="#8294b0" stroke-width="0.7"></rect><text x="126" y="200" font-family="&#39;JetBrains Mono&#39;, ui-monospace, monospace" font-size="5" fill="#39455f" text-anchor="start" letter-spacing="0.1em" font-weight="500" style="text-transform:uppercase">t3</text><rect x="40" y="232" width="20" height="16" rx="2" fill="rgba(232,71,26,0.1)" stroke="#8294b0" stroke-width="0.7"></rect><line x1="50" y1="232" x2="128" y2="226" stroke="rgba(232,71,26,0.4)" stroke-width="0.5"></line><rect x="66" y="232" width="20" height="16" rx="2" fill="rgba(232,71,26,0.1)" stroke="#8294b0" stroke-width="0.7"></rect><line x1="76" y1="232" x2="128" y2="226" stroke="rgba(232,71,26,0.4)" stroke-width="0.5"></line><rect x="92" y="232" width="20" height="16" rx="2" fill="rgba(232,71,26,0.1)" stroke="#8294b0" stroke-width="0.7"></rect><line x1="102" y1="232" x2="128" y2="226" stroke="rgba(232,71,26,0.4)" stroke-width="0.5"></line><rect x="118" y="232" width="20" height="16" rx="2" fill="rgba(232,71,26,0.1)" stroke="#8294b0" stroke-width="0.7"></rect><text x="152" y="244" font-family="&#39;JetBrains Mono&#39;, ui-monospace, monospace" font-size="5" fill="#39455f" text-anchor="start" letter-spacing="0.1em" font-weight="500" style="text-transform:uppercase">t4</text><text x="120" y="290" font-family="&#39;JetBrains Mono&#39;, ui-monospace, monospace" font-size="7" fill="#e8471a" text-anchor="middle" letter-spacing="0.1em" font-weight="500" style="text-transform:uppercase">O(n²) · expensive</text><text x="355" y="64" font-family="&#39;JetBrains Mono&#39;, ui-monospace, monospace" font-size="7" fill="#cbd5e8" text-anchor="middle" letter-spacing="0.1em" font-weight="600" style="text-transform:uppercase">With cache</text><text x="355" y="76" font-family="&#39;JetBrains Mono&#39;, ui-monospace, monospace" font-size="5.5" fill="#8294b0" text-anchor="middle" letter-spacing="0.1em" font-weight="500" style="text-transform:uppercase">reuse stored K,V</text><rect x="280" y="210" width="70" height="16" rx="2" fill="rgba(232,71,26,0.08)" stroke="#8294b0" stroke-width="0.7"></rect><rect x="280" y="190" width="70" height="16" rx="2" fill="rgba(232,71,26,0.1)" stroke="#8294b0" stroke-width="0.7"></rect><rect x="280" y="170" width="70" height="16" rx="2" fill="rgba(232,71,26,0.12)" stroke="#8294b0" stroke-width="0.7"></rect><rect x="280" y="150" width="70" height="16" rx="2" fill="rgba(232,71,26,0.14)" stroke="#8294b0" stroke-width="0.7"></rect><rect x="280" y="130" width="70" height="16" rx="2" fill="rgba(232,71,26,0.16)" stroke="#8294b0" stroke-width="0.7"></rect><rect x="280" y="110" width="70" height="16" rx="2" fill="rgba(232,71,26,0.18)" stroke="#e8471a" stroke-width="1.2"></rect><text x="315" y="228" font-family="&#39;JetBrains Mono&#39;, ui-monospace, monospace" font-size="5.5" fill="#8294b0" text-anchor="middle" letter-spacing="0.1em" font-weight="500" style="text-transform:uppercase">cached K,V (grows)</text><rect x="396" y="110" width="40" height="30" rx="3" fill="rgba(232,71,26,0.16)" stroke="#e8471a" stroke-width="1.2" filter="url(#soft)"></rect><text x="416" y="128" font-family="&#39;JetBrains Mono&#39;, ui-monospace, monospace" font-size="6" fill="#cbd5e8" text-anchor="middle" letter-spacing="0.1em" font-weight="500" style="text-transform:uppercase">new</text><line x1="396" y1="125" x2="352" y2="118" stroke="#e8471a" stroke-width="1.1" stroke-linecap="round"></line><path d="M 352 118 l 4.6 -1.9 M 352 118 l 3.8 3.2" stroke="#e8471a" stroke-width="1.1" fill="none" stroke-linecap="round"></path><text x="420" y="150" font-family="&#39;JetBrains Mono&#39;, ui-monospace, monospace" font-size="5" fill="#e8471a" text-anchor="middle" letter-spacing="0.1em" font-weight="500" style="text-transform:uppercase">compute once</text><rect x="280" y="250" width="156" height="14" rx="3" fill="none" stroke="#8294b0" stroke-width="0.9"></rect><rect x="282" y="252" width="96" height="10" rx="2" fill="rgba(232,71,26,0.4)" stroke="none" stroke-width="0"></rect><text x="280" y="278" font-family="&#39;JetBrains Mono&#39;, ui-monospace, monospace" font-size="5.5" fill="#8294b0" text-anchor="start" letter-spacing="0.1em" font-weight="500" style="text-transform:uppercase">VRAM · KV cache footprint</text><text x="355" y="290" font-family="&#39;JetBrains Mono&#39;, ui-monospace, monospace" font-size="7" fill="#e8471a" text-anchor="middle" letter-spacing="0.1em" font-weight="500" style="text-transform:uppercase">O(n) · efficient</text><text x="235" y="332" font-family="&#39;JetBrains Mono&#39;, ui-monospace, monospace" font-size="6" fill="#39455f" text-anchor="middle" letter-spacing="0.04em" font-weight="500" style="text-transform:uppercase">128K context · ~16GB cache (Llama 3 70B) · MQA / GQA shrink it</text></svg>