<svg xmlns="http://www.w3.org/2000/svg" viewBox="0 0 440 360" width="440" height="360"><defs><filter id="glow" x="-60%" y="-60%" width="220%" height="220%"><feGaussianBlur stdDeviation="2.6" result="b"></feGaussianBlur><feMerge><feMergeNode in="b"></feMergeNode><feMergeNode in="SourceGraphic"></feMergeNode></feMerge></filter><filter id="soft" x="-60%" y="-60%" width="220%" height="220%"><feGaussianBlur stdDeviation="1.2" result="b"></feGaussianBlur><feMerge><feMergeNode in="b"></feMergeNode><feMergeNode in="SourceGraphic"></feMergeNode></feMerge></filter></defs><path d="M 14 24 L 14 14 L 24 14" stroke="#39455f" stroke-width="1" fill="none" opacity="0.7"></path><path d="M 426 24 L 426 14 L 416 14" stroke="#39455f" stroke-width="1" fill="none" opacity="0.7"></path><path d="M 14 336 L 14 346 L 24 346" stroke="#39455f" stroke-width="1" fill="none" opacity="0.7"></path><path d="M 426 336 L 426 346 L 416 346" stroke="#39455f" stroke-width="1" fill="none" opacity="0.7"></path><text x="220" y="24" font-family="&#39;JetBrains Mono&#39;, ui-monospace, monospace" font-size="8.5" fill="#cbd5e8" text-anchor="middle" letter-spacing="0.06em" font-weight="600" style="text-transform:uppercase">Your Prompt — the tip of a 26-stage iceberg</text><g opacity="0.32"><line x1="60" y1="64" x2="92" y2="64" stroke="#39455f" stroke-width="0.8"></line><rect x="53" y="57" width="14" height="14" rx="2" fill="none" stroke="#8294b0" stroke-width="0.8"></rect><line x1="92" y1="64" x2="124" y2="64" stroke="#39455f" stroke-width="0.8"></line><circle cx="92" cy="64" r="5" fill="none" stroke="#8294b0" stroke-width="0.8"></circle><line x1="124" y1="64" x2="156" y2="64" stroke="#39455f" stroke-width="0.8"></line><circle cx="124" cy="64" r="5" fill="none" stroke="#8294b0" stroke-width="0.8"></circle><line x1="156" y1="64" x2="188" y2="64" stroke="#39455f" stroke-width="0.8"></line><rect x="149" y="57" width="14" height="14" rx="2" fill="none" stroke="#8294b0" stroke-width="0.8"></rect><line x1="188" y1="64" x2="220" y2="64" stroke="#39455f" stroke-width="0.8"></line><circle cx="188" cy="64" r="5" fill="none" stroke="#8294b0" stroke-width="0.8"></circle><line x1="220" y1="64" x2="252" y2="64" stroke="#39455f" stroke-width="0.8"></line><circle cx="220" cy="64" r="5" fill="none" stroke="#8294b0" stroke-width="0.8"></circle><line x1="252" y1="64" x2="284" y2="64" stroke="#39455f" stroke-width="0.8"></line><rect x="245" y="57" width="14" height="14" rx="2" fill="none" stroke="#8294b0" stroke-width="0.8"></rect><line x1="284" y1="64" x2="316" y2="64" stroke="#39455f" stroke-width="0.8"></line><circle cx="284" cy="64" r="5" fill="none" stroke="#8294b0" stroke-width="0.8"></circle><line x1="316" y1="64" x2="348" y2="64" stroke="#39455f" stroke-width="0.8"></line><circle cx="316" cy="64" r="5" fill="none" stroke="#8294b0" stroke-width="0.8"></circle><line x1="348" y1="64" x2="380" y2="64" stroke="#39455f" stroke-width="0.8"></line><rect x="341" y="57" width="14" height="14" rx="2" fill="none" stroke="#8294b0" stroke-width="0.8"></rect><line x1="380" y1="64" x2="412" y2="64" stroke="#39455f" stroke-width="0.8"></line><circle cx="380" cy="64" r="5" fill="none" stroke="#8294b0" stroke-width="0.8"></circle></g><text x="220" y="86" font-family="&#39;JetBrains Mono&#39;, ui-monospace, monospace" font-size="5.5" fill="#39455f" text-anchor="middle" letter-spacing="0.1em" font-weight="500" style="text-transform:uppercase">the infrastructure behind one text box</text><g fill="rgba(232,71,26,0.6)"><circle cx="150" cy="170" r="1.4" opacity="0.4"></circle><circle cx="180" cy="150" r="1.9" opacity="0.6000000000000001"></circle><circle cx="210" cy="120" r="2.4" opacity="0.8"></circle><circle cx="240" cy="150" r="1.4" opacity="0.4"></circle><circle cx="270" cy="168" r="1.9" opacity="0.6000000000000001"></circle><circle cx="300" cy="135" r="2.4" opacity="0.8"></circle><circle cx="200" cy="180" r="1.4" opacity="0.4"></circle><circle cx="260" cy="110" r="1.9" opacity="0.6000000000000001"></circle></g><rect x="66" y="210" width="308" height="58" rx="10" fill="rgba(255,255,255,0.03)" stroke="#334155" stroke-width="1.4"></rect><text x="84" y="244" font-family="&#39;JetBrains Mono&#39;, ui-monospace, monospace" font-size="9" fill="#cbd5e8" text-anchor="start" letter-spacing="0em" font-weight="400" style="text-transform:uppercase">How does EUV lithography work?</text><rect x="280" y="230" width="2" height="20" fill="#e8471a" filter="url(#soft)"></rect><circle cx="346" cy="239" r="17" fill="rgba(232,71,26,0.18)" stroke="#e8471a" stroke-width="1.4" filter="url(#soft)"></circle><line x1="339" y1="239" x2="353" y2="239" stroke="#e8471a" stroke-width="1.6" stroke-linecap="round"></line><path d="M 353 239 l -4.3 2.6 M 353 239 l -4.3 -2.6" stroke="#e8471a" stroke-width="1.6" fill="none" stroke-linecap="round"></path><text x="220" y="300" font-family="&#39;JetBrains Mono&#39;, ui-monospace, monospace" font-size="6" fill="#39455f" text-anchor="middle" letter-spacing="0.1em" font-weight="500" style="text-transform:uppercase">You</text><text x="84" y="202" font-family="&#39;JetBrains Mono&#39;, ui-monospace, monospace" font-size="6" fill="#e8471a" text-anchor="start" letter-spacing="0.1em" font-weight="500" style="text-transform:uppercase">Prompt</text><text x="220" y="326" font-family="&#39;JetBrains Mono&#39;, ui-monospace, monospace" font-size="6" fill="#39455f" text-anchor="middle" letter-spacing="0.05em" font-weight="500" style="text-transform:uppercase">Every answer rests on silicon, plasma, and physics</text></svg>